<svg xmlns="http://www.w3.org/2000/svg" width="1200" height="630" viewBox="0 0 1200 630"><rect width="100%" height="100%" fill="#667eea"/><path fill="#ffffff" d="M274.18 257.645v116.4h-21.74v-116.4zm40.08 37.43 1.37 6.52q2.5-2.5 5.28-4.63 2.77-2.13 5.87-3.62t6.64-2.34q3.55-.84 7.73-.84 6.76 0 12 2.29 5.23 2.3 8.73 6.44 3.5 4.15 5.31 9.9 1.81 5.76 1.81 12.68v52.57h-19.88v-52.57q0-7.56-3.46-11.71-3.46-4.14-10.55-4.14-5.15 0-9.66 2.33-4.5 2.33-8.53 6.36v59.73h-19.88v-82.59h12.15q3.87 0 5.07 3.62m99.26 78.97h-19.88v-67.62l-7.17-1.13q-2.33-.48-3.74-1.65-1.41-1.16-1.41-3.34v-8.13h12.32v-6.12q0-7.08 2.13-12.72 2.13-5.63 6.12-9.57 3.98-3.95 9.7-6.04 5.71-2.1 12.88-2.1 5.71 0 10.63 1.53l-.41 9.99q-.08 1.12-.64 1.81-.56.68-1.49 1.04-.93.37-2.13.49-1.21.12-2.58.12-3.54 0-6.32.76-2.78.77-4.71 2.66t-2.94 4.99q-1 3.1-1 7.69v5.47h21.49v14.17h-20.85zm32.68-82.59h19.97v82.59H446.2zm22.71-24.07q0 2.57-1.05 4.83-1.05 2.25-2.78 3.94t-4.06 2.7q-2.34 1-4.99 1-2.58 0-4.87-1-2.3-1.01-3.99-2.7t-2.7-3.94q-1-2.26-1-4.83 0-2.66 1-4.99 1.01-2.34 2.7-4.03t3.99-2.7q2.29-1 4.87-1 2.65 0 4.99 1 2.33 1.01 4.06 2.7t2.78 4.03q1.05 2.33 1.05 4.99m34.77 27.69 1.37 6.52q2.5-2.5 5.27-4.63 2.78-2.13 5.88-3.62t6.64-2.34q3.54-.84 7.73-.84 6.76 0 11.99 2.29 5.24 2.3 8.74 6.44 3.5 4.15 5.31 9.9 1.81 5.76 1.81 12.68v52.57h-19.88v-52.57q0-7.56-3.46-11.71-3.47-4.14-10.55-4.14-5.15 0-9.66 2.33t-8.53 6.36v59.73h-19.89v-82.59h12.16q3.86 0 5.07 3.62m74.22-3.62h19.97v82.59H577.9zm22.7-24.07q0 2.57-1.04 4.83-1.05 2.25-2.78 3.94t-4.07 2.7q-2.33 1-4.99 1-2.57 0-4.87-1-2.29-1.01-3.98-2.7t-2.7-3.94q-1-2.26-1-4.83 0-2.66 1-4.99 1.01-2.34 2.7-4.03t3.98-2.7q2.3-1 4.87-1 2.66 0 4.99 1 2.34 1.01 4.07 2.7t2.78 4.03q1.04 2.33 1.04 4.99m45.08 107.95q-10.78 0-16.54-6.08t-5.76-16.78v-46.13h-8.45q-1.61 0-2.73-1.05-1.13-1.04-1.13-3.14v-7.89l13.28-2.17 4.19-22.54q.4-1.61 1.53-2.49 1.12-.89 2.89-.89h10.31v26h22.06v14.17h-22.06v44.76q0 3.86 1.89 6.03 1.89 2.18 5.19 2.18 1.85 0 3.1-.44 1.25-.45 2.18-.93.92-.48 1.65-.93.72-.44 1.44-.44.89 0 1.45.44.57.45 1.21 1.33l5.96 9.66q-4.35 3.62-9.98 5.48-5.64 1.85-11.68 1.85m48.06-52.09h37.51q0-3.86-1.08-7.28-1.09-3.42-3.26-6-2.18-2.57-5.52-4.06t-7.76-1.49q-8.62 0-13.57 4.91t-6.32 13.92m50.72 12h-51.12q.48 6.36 2.25 10.99t4.67 7.64q2.9 3.02 6.89 4.51 3.98 1.49 8.81 1.49t8.33-1.12q3.5-1.13 6.12-2.5t4.59-2.5q1.97-1.12 3.82-1.12 2.5 0 3.7 1.85l5.72 7.24q-3.3 3.87-7.41 6.48-4.1 2.62-8.57 4.19t-9.1 2.21q-4.62.65-8.97.65-8.61 0-16.02-2.86t-12.88-8.45q-5.47-5.6-8.61-13.85t-3.14-19.12q0-8.45 2.73-15.9 2.74-7.44 7.85-12.96 5.11-5.51 12.48-8.73t16.62-3.22q7.81 0 14.41 2.49 6.6 2.5 11.35 7.29t7.45 11.75q2.7 6.97 2.7 15.9 0 4.51-.97 6.08t-3.7 1.57m108.67 21.33q6.28 0 11.23-2.09t8.33-5.88q3.38-3.78 5.2-9.18 1.81-5.39 1.81-12.07v-69.71h21.65v69.71q0 10.38-3.34 19.2-3.34 8.81-9.58 15.21t-15.17 9.99q-8.94 3.58-20.13 3.58-11.27 0-20.2-3.58-8.94-3.59-15.18-9.99t-9.58-15.21q-3.34-8.82-3.34-19.2v-69.71h21.66v69.63q0 6.68 1.81 12.07 1.81 5.4 5.23 9.22 3.42 3.83 8.37 5.92t11.23 2.09m94.43-98.93v116.4h-21.74v-116.4z"/></svg>